<svg width="20" height="20" viewBox="0 0 20 20" fill="none" xmlns="http://www.w3.org/2000/svg">
<path d="M10.0003 18.9584C9.44196 18.9584 8.87529 18.8167 8.37529 18.5251L3.42529 15.6667C2.42529 15.0834 1.80029 14.0084 1.80029 12.8501V7.1501C1.80029 5.99176 2.42529 4.91676 3.42529 4.33342L8.37529 1.4751C9.37529 0.891764 10.617 0.891764 11.6253 1.4751L16.5753 4.33342C17.5753 4.91676 18.2003 5.99176 18.2003 7.1501V12.8501C18.2003 14.0084 17.5753 15.0834 16.5753 15.6667L11.6253 18.5251C11.1253 18.8167 10.5586 18.9584 10.0003 18.9584ZM10.0003 2.29175C9.65863 2.29175 9.30863 2.38342 9.00029 2.55842L4.05029 5.41675C3.43363 5.77508 3.05029 6.43343 3.05029 7.1501V12.8501C3.05029 13.5584 3.43363 14.2251 4.05029 14.5834L9.00029 17.4417C9.61696 17.8001 10.3836 17.8001 11.0003 17.4417L15.9503 14.5834C16.567 14.2251 16.9503 13.5667 16.9503 12.8501V7.1501C16.9503 6.44176 16.567 5.77508 15.9503 5.41675L11.0003 2.55842C10.692 2.38342 10.342 2.29175 10.0003 2.29175Z" fill="#D6E0FF"/>
<path d="M9.99977 9.79151C8.58311 9.79151 7.43311 8.6415 7.43311 7.22483C7.43311 5.80817 8.58311 4.6582 9.99977 4.6582C11.4164 4.6582 12.5664 5.80817 12.5664 7.22483C12.5664 8.6415 11.4164 9.79151 9.99977 9.79151ZM9.99977 5.9082C9.27477 5.9082 8.68311 6.49983 8.68311 7.22483C8.68311 7.94983 9.27477 8.54151 9.99977 8.54151C10.7248 8.54151 11.3164 7.94983 11.3164 7.22483C11.3164 6.49983 10.7248 5.9082 9.99977 5.9082Z" fill="#D6E0FF"/>
<path d="M13.3332 14.5086C12.9915 14.5086 12.7082 14.2253 12.7082 13.8836C12.7082 12.7336 11.4915 11.792 9.99984 11.792C8.50817 11.792 7.2915 12.7336 7.2915 13.8836C7.2915 14.2253 7.00817 14.5086 6.6665 14.5086C6.32484 14.5086 6.0415 14.2253 6.0415 13.8836C6.0415 12.0419 7.8165 10.542 9.99984 10.542C12.1832 10.542 13.9582 12.0419 13.9582 13.8836C13.9582 14.2253 13.6748 14.5086 13.3332 14.5086Z" fill="#D6E0FF"/>
</svg>
