<svg width="14" height="7" viewBox="0 0 14 7" fill="none" xmlns="http://www.w3.org/2000/svg">
<path d="M13.1446 0.53489C13.1021 0.432098 13.03 0.344233 12.9375 0.282407C12.845 0.22058 12.7363 0.187569 12.625 0.187546H1.37502C1.2637 0.187458 1.15486 0.220401 1.06228 0.282203C0.969692 0.344005 0.897526 0.431889 0.854916 0.534727C0.812305 0.637565 0.801165 0.750733 0.822906 0.859906C0.844646 0.969078 0.898291 1.06935 0.977047 1.14801L6.60205 6.77301C6.65429 6.82531 6.71633 6.8668 6.78461 6.89511C6.8529 6.92342 6.9261 6.93799 7.00002 6.93799C7.07394 6.93799 7.14713 6.92342 7.21542 6.89511C7.28371 6.8668 7.34574 6.82531 7.39799 6.77301L13.023 1.14801C13.1016 1.0693 13.1552 0.96904 13.1768 0.859904C13.1985 0.750767 13.1873 0.63766 13.1446 0.53489Z" fill="#E27233"/>
</svg>
