<svg width="13" height="7" viewBox="0 0 13 7" fill="none" xmlns="http://www.w3.org/2000/svg">
<path d="M12.8113 6.46511C12.7687 6.5679 12.6966 6.65577 12.6041 6.71759C12.5116 6.77942 12.4029 6.81243 12.2916 6.81245H1.04164C0.930325 6.81254 0.821486 6.7796 0.728902 6.7178C0.636318 6.65599 0.564152 6.56811 0.521542 6.46527C0.478931 6.36244 0.467791 6.24927 0.489532 6.14009C0.511272 6.03092 0.564917 5.93065 0.643673 5.85199L6.26867 0.226985C6.32091 0.174686 6.38295 0.133197 6.45124 0.10489C6.51952 0.0765821 6.59272 0.0620117 6.66664 0.0620117C6.74056 0.0620117 6.81376 0.0765821 6.88205 0.10489C6.95033 0.133197 7.01237 0.174686 7.06461 0.226985L12.6896 5.85199C12.7683 5.9307 12.8218 6.03096 12.8434 6.1401C12.8651 6.24923 12.8539 6.36234 12.8113 6.46511Z" fill="#2CC171"/>
</svg>
