<svg width="16" height="16" viewBox="0 0 16 16" fill="none" xmlns="http://www.w3.org/2000/svg">
<path d="M15.2806 14.2198C15.3503 14.2895 15.4056 14.3722 15.4433 14.4632C15.481 14.5543 15.5004 14.6519 15.5004 14.7504C15.5004 14.849 15.481 14.9465 15.4433 15.0376C15.4056 15.1286 15.3503 15.2114 15.2806 15.281C15.2109 15.3507 15.1282 15.406 15.0372 15.4437C14.9461 15.4814 14.8485 15.5008 14.75 15.5008C14.6514 15.5008 14.5539 15.4814 14.4628 15.4437C14.3718 15.406 14.289 15.3507 14.2194 15.281L7.99999 9.06073L1.78061 15.281C1.63988 15.4218 1.44901 15.5008 1.24999 15.5008C1.05097 15.5008 0.860095 15.4218 0.719365 15.281C0.578634 15.1403 0.499573 14.9494 0.499573 14.7504C0.499573 14.5514 0.578634 14.3605 0.719365 14.2198L6.93968 8.00042L0.719365 1.78104C0.578634 1.64031 0.499573 1.44944 0.499573 1.25042C0.499573 1.05139 0.578634 0.860522 0.719365 0.719792C0.860095 0.579062 1.05097 0.5 1.24999 0.5C1.44901 0.5 1.63988 0.579062 1.78061 0.719792L7.99999 6.9401L14.2194 0.719792C14.3601 0.579062 14.551 0.5 14.75 0.5C14.949 0.5 15.1399 0.579062 15.2806 0.719792C15.4213 0.860522 15.5004 1.05139 15.5004 1.25042C15.5004 1.44944 15.4213 1.64031 15.2806 1.78104L9.0603 8.00042L15.2806 14.2198Z" fill="#3A354E"/>
</svg>
