<svg width="31" height="30" viewBox="0 0 31 30" fill="none" xmlns="http://www.w3.org/2000/svg">
<path d="M15.5 28.4375C8.0875 28.4375 2.0625 22.4125 2.0625 15C2.0625 7.5875 8.0875 1.5625 15.5 1.5625C22.9125 1.5625 28.9375 7.5875 28.9375 15C28.9375 22.4125 22.9125 28.4375 15.5 28.4375ZM15.5 3.4375C9.125 3.4375 3.9375 8.625 3.9375 15C3.9375 21.375 9.125 26.5625 15.5 26.5625C21.875 26.5625 27.0625 21.375 27.0625 15C27.0625 8.625 21.875 3.4375 15.5 3.4375Z" fill="white"/>
<path d="M15.5 17.1875C14.9875 17.1875 14.5625 16.7625 14.5625 16.25V10C14.5625 9.4875 14.9875 9.0625 15.5 9.0625C16.0125 9.0625 16.4375 9.4875 16.4375 10V16.25C16.4375 16.7625 16.0125 17.1875 15.5 17.1875Z" fill="white"/>
<path d="M15.5 21.2496C15.3375 21.2496 15.175 21.2121 15.025 21.1496C14.875 21.0871 14.7375 20.9996 14.6125 20.8871C14.5 20.7621 14.4125 20.6371 14.35 20.4746C14.2875 20.3246 14.25 20.1621 14.25 19.9996C14.25 19.8371 14.2875 19.6746 14.35 19.5246C14.4125 19.3746 14.5 19.2371 14.6125 19.1121C14.7375 18.9996 14.875 18.9121 15.025 18.8496C15.325 18.7246 15.675 18.7246 15.975 18.8496C16.125 18.9121 16.2625 18.9996 16.3875 19.1121C16.5 19.2371 16.5875 19.3746 16.65 19.5246C16.7125 19.6746 16.75 19.8371 16.75 19.9996C16.75 20.1621 16.7125 20.3246 16.65 20.4746C16.5875 20.6371 16.5 20.7621 16.3875 20.8871C16.2625 20.9996 16.125 21.0871 15.975 21.1496C15.825 21.2121 15.6625 21.2496 15.5 21.2496Z" fill="white"/>
</svg>
