<svg width="14" height="14" viewBox="0 0 14 14" fill="none" xmlns="http://www.w3.org/2000/svg">
<path d="M7.58338 6.85414C7.47255 6.85414 7.36171 6.81331 7.27421 6.72581C7.10505 6.55664 7.10505 6.27664 7.27421 6.10747L12.0575 1.32414C12.2267 1.15497 12.5067 1.15497 12.6759 1.32414C12.845 1.49331 12.845 1.77331 12.6759 1.94247L7.89255 6.72581C7.80505 6.81331 7.69421 6.85414 7.58338 6.85414Z" fill="#0089F1"/>
<path d="M12.8333 4.404C12.5942 4.404 12.3958 4.20567 12.3958 3.9665V1.604H10.0333C9.79416 1.604 9.59583 1.40567 9.59583 1.1665C9.59583 0.927337 9.79416 0.729004 10.0333 0.729004H12.8333C13.0725 0.729004 13.2708 0.927337 13.2708 1.1665V3.9665C13.2708 4.20567 13.0725 4.404 12.8333 4.404Z" fill="#0089F1"/>
<path d="M8.74996 13.2707H5.24996C2.08246 13.2707 0.729126 11.9173 0.729126 8.74984V5.24984C0.729126 2.08234 2.08246 0.729004 5.24996 0.729004H6.41663C6.65579 0.729004 6.85413 0.927337 6.85413 1.1665C6.85413 1.40567 6.65579 1.604 6.41663 1.604H5.24996C2.56079 1.604 1.60413 2.56067 1.60413 5.24984V8.74984C1.60413 11.439 2.56079 12.3957 5.24996 12.3957H8.74996C11.4391 12.3957 12.3958 11.439 12.3958 8.74984V7.58317C12.3958 7.344 12.5941 7.14567 12.8333 7.14567C13.0725 7.14567 13.2708 7.344 13.2708 7.58317V8.74984C13.2708 11.9173 11.9175 13.2707 8.74996 13.2707Z" fill="#0089F1"/>
</svg>
