<svg width="30" height="30" viewBox="0 0 30 30" fill="none" xmlns="http://www.w3.org/2000/svg">
<path d="M15 28.4375C7.5875 28.4375 1.5625 22.4125 1.5625 15C1.5625 7.5875 7.5875 1.5625 15 1.5625C22.4125 1.5625 28.4375 7.5875 28.4375 15C28.4375 22.4125 22.4125 28.4375 15 28.4375ZM15 3.4375C8.625 3.4375 3.4375 8.625 3.4375 15C3.4375 21.375 8.625 26.5625 15 26.5625C21.375 26.5625 26.5625 21.375 26.5625 15C26.5625 8.625 21.375 3.4375 15 3.4375Z" fill="white"/>
<path d="M13.2249 19.475C12.9749 19.475 12.7374 19.375 12.5624 19.2L9.02493 15.6625C8.66243 15.3 8.66243 14.7 9.02493 14.3375C9.38743 13.975 9.98743 13.975 10.3499 14.3375L13.2249 17.2125L19.6499 10.7875C20.0124 10.425 20.6124 10.425 20.9749 10.7875C21.3374 11.15 21.3374 11.75 20.9749 12.1125L13.8874 19.2C13.7124 19.375 13.4749 19.475 13.2249 19.475Z" fill="white"/>
</svg>
